<svg width="110" height="110" viewBox="0 0 110 110" fill="none" xmlns="http://www.w3.org/2000/svg">
<path d="M55.0059 108.274C7.40302 108.274 1.66686 67.0212 1.73826 56.7139V53.2742C1.66686 42.9669 7.41492 1.71392 55.0059 1.71392C102.609 1.71392 108.345 42.9669 108.274 53.2742V56.7139C108.345 67.0212 102.597 108.274 55.0059 108.274Z" fill="url(#paint0_linear_0_220)"/>
<path d="M73.9399 44.6927C71.0123 46.4066 69.6319 48.2872 69.0726 49.2274C68.8703 49.9535 68.7512 50.739 68.7512 51.5603C68.7512 55.3571 71.06 58.4397 73.9043 58.4397C76.7485 58.4397 79.0572 55.3571 79.0572 51.5603C79.0572 47.7635 76.7723 44.7165 73.9399 44.6927V44.6927Z" fill="black"/>
<path d="M36.06 44.6927C38.9876 46.4066 40.368 48.2872 40.9274 49.2274C41.1297 49.9535 41.2487 50.739 41.2487 51.5603C41.2487 55.3571 38.9399 58.4397 36.0957 58.4397C33.2514 58.4397 30.9426 55.3571 30.9426 51.5603C30.9426 47.7635 33.2276 44.7165 36.06 44.6927V44.6927Z" fill="black"/>
<path d="M96.0638 21.6501C95.2068 20.4956 94.2785 19.3887 93.3263 18.3413L95.8733 16.0203C96.8969 17.1392 97.8848 18.3413 98.8132 19.591L96.0638 21.6501V21.6501Z" fill="#1D1D1B"/>
<path d="M12.5799 92.1824C0.226896 77.1857 -0.0110908 58.7492 0.000809946 56.702V53.2742C-0.0586937 44.7641 3.1426 27.0061 15.5075 14.5683C25.1113 4.8918 38.3926 0 54.9941 0C70.3103 0 82.8418 4.18957 92.2433 12.4616L89.9703 15.0444C81.2233 7.34365 69.4535 3.43973 54.9941 3.43973C39.3446 3.43973 26.8845 7.99827 17.9471 16.9963C6.37959 28.6367 3.3925 45.2759 3.4401 53.2742V56.7258C3.3925 63.7124 5.82025 78.5782 15.2337 90.0043L12.5799 92.1943V92.1824Z" fill="#1D1D1B"/>
<path d="M55.006 110C38.6901 110 25.5635 105.251 15.9954 95.8959L18.3993 93.4441C27.301 102.145 39.6183 106.56 55.006 106.56C70.3936 106.56 83.1155 102.002 92.0529 93.0037C103.62 81.3634 106.608 64.7241 106.56 56.7258V53.0838C106.56 51.5603 106.334 37.8251 98.3365 24.9589L101.252 23.1378C107.714 33.5285 109.999 45.752 109.999 53.0718V56.702C110.059 65.2121 106.857 82.9701 94.4926 95.4079C84.8887 105.084 71.6075 109.976 55.006 109.976V110Z" fill="#1D1D1B"/>
<path d="M37.7261 86.4694L34.4534 85.4101C34.5248 85.1959 36.2504 79.9946 43.5099 76.4953C50.6979 73.0199 59.2902 73.0199 66.4902 76.4953C73.7496 79.9946 75.4753 85.1959 75.5467 85.4101L72.274 86.4456C72.2264 86.2909 70.8458 82.3989 65.0026 79.578C58.838 76.6025 51.1739 76.6025 45.0094 79.578C39.1661 82.3989 37.7856 86.2909 37.738 86.4575L37.7261 86.4694Z" fill="#1D1D1B"/>
<path d="M73.9044 60.1537C70.1199 60.1537 67.0257 56.2973 67.0257 51.5603C67.0257 50.6438 67.1566 49.7273 67.4065 48.7752C67.4422 48.6323 67.5018 48.4895 67.5851 48.3467C68.2396 47.2398 69.8224 45.0974 73.0713 43.2049C73.345 43.0502 73.6306 42.955 73.9638 42.9669C77.784 43.0026 80.7829 46.7756 80.7829 51.5603C80.7829 56.345 77.7007 60.1537 73.9044 60.1537V60.1537ZM70.6792 49.9059C70.5364 50.4772 70.4769 51.0247 70.4769 51.5603C70.4769 54.3573 72.0478 56.7139 73.9163 56.7139C75.7847 56.7139 77.3555 54.3573 77.3555 51.5603C77.3555 49.0013 76.0226 46.7994 74.3684 46.4542C72.2858 47.7635 71.2029 49.1084 70.6911 49.9059H70.6792Z" fill="#1D1D1B"/>
<path d="M70.3461 50.4772L67.1566 49.2036C67.3113 48.8109 71.2386 39.5272 89.3753 39.5272V42.9669C73.5355 42.9669 70.3818 50.4058 70.3461 50.4772Z" fill="#1D1D1B"/>
<path d="M36.0957 60.1537C32.3113 60.1537 29.2172 56.2974 29.2172 51.5603C29.2172 46.8232 32.2161 43.0145 36.0363 42.9669C36.3219 42.9669 36.6551 43.0383 36.9288 43.2049C40.1777 45.1093 41.7605 47.2398 42.415 48.3467C42.4983 48.4776 42.5579 48.6204 42.5936 48.7752C42.8554 49.7273 42.9744 50.6438 42.9744 51.5603C42.9744 56.2974 39.8921 60.1537 36.0957 60.1537V60.1537ZM35.6554 46.4542C34.0012 46.7994 32.6683 49.0013 32.6683 51.5603C32.6683 54.3573 34.2392 56.7139 36.1077 56.7139C37.9761 56.7139 39.547 54.3573 39.547 51.5603C39.547 51.0247 39.4755 50.4772 39.3446 49.9059C38.8329 49.0965 37.75 47.7635 35.6673 46.4542H35.6554Z" fill="#1D1D1B"/>
<path d="M39.6659 50.501C39.535 50.1915 36.2504 42.9669 20.6367 42.9669V39.5272C38.7734 39.5272 42.7006 48.8109 42.8553 49.2036L39.6659 50.501Z" fill="#1D1D1B"/>
<defs>
<linearGradient id="paint0_linear_0_220" x1="54.7679" y1="-2.71369" x2="55.006" y2="108.798" gradientUnits="userSpaceOnUse">
<stop stop-color="#FF6B00"/>
<stop offset="1" stop-color="#F30802"/>
</linearGradient>
</defs>
</svg>
