<svg width="110" height="110" viewBox="0 0 110 110" fill="none" xmlns="http://www.w3.org/2000/svg">
<path d="M55.0059 108.286C7.40306 108.286 1.66692 67.0285 1.73832 56.7201V53.28C1.66692 42.9716 7.41496 1.7141 55.0059 1.7141C102.609 1.7141 108.345 42.9716 108.274 53.28V56.7201C108.345 67.0285 102.597 108.286 55.0059 108.286Z" fill="url(#paint0_linear_0_94)"/>
<path d="M83.8771 63.6479C84.972 63.3384 86.0193 64.3145 85.9241 65.5406C85.7812 67.0404 85.5432 68.4331 85.1862 69.7663C81.2828 72.0637 70.7744 77.3488 54.9941 77.3488C39.2137 77.3488 28.7054 72.0756 24.8019 69.7663C24.4449 68.4212 24.195 67.0285 24.0641 65.5406C23.957 64.3145 25.0042 63.3384 26.111 63.6479C30.669 64.9573 41.9152 67.7189 54.9941 67.7189C68.073 67.7189 79.3192 64.9573 83.8771 63.6479Z" fill="url(#paint1_linear_0_94)"/>
<path d="M66.8948 88.9666C63.2056 90.395 59.2308 91.0973 55.006 91.0973C50.7812 91.0973 46.8064 90.395 43.1172 88.9666C43.6884 87.4668 46.2471 82.503 55.006 82.503C63.7649 82.503 66.3236 87.4668 66.8948 88.9666Z" fill="#F41934"/>
<path d="M84.3413 72.4565C82.4847 77.3369 79.2596 81.1222 75.5942 83.9909C72.8571 86.1336 69.9771 87.8119 66.8829 88.9785C66.3117 87.4786 63.753 82.5149 54.9941 82.5149C46.2351 82.5149 43.6765 87.4786 43.1052 88.9785C40.0111 87.8119 37.1311 86.1455 34.3939 83.9909C30.7285 81.1222 27.5034 77.3369 25.6469 72.4565C25.3256 71.5994 25.0281 70.7067 24.8019 69.7782C28.7054 72.0756 39.2137 77.3607 54.9941 77.3607C70.7744 77.3607 81.2828 72.0875 85.1862 69.7782C84.9601 70.7067 84.6745 71.5994 84.3413 72.4565Z" fill="url(#paint2_linear_0_94)"/>
<path d="M83.8771 63.6479C84.972 63.3384 86.0193 64.3145 85.9241 65.5406C85.7812 67.0404 85.5432 68.4331 85.1862 69.7663C81.2828 72.0637 70.7744 77.3488 54.9941 77.3488C39.2137 77.3488 28.7054 72.0756 24.8019 69.7663C24.4449 68.4212 24.195 67.0285 24.0641 65.5406C23.957 64.3145 25.0042 63.3384 26.111 63.6479C30.669 64.9573 41.9152 67.7189 54.9941 67.7189C68.073 67.7189 79.3192 64.9573 83.8771 63.6479Z" fill="url(#paint3_linear_0_94)"/>
<path d="M83.8771 63.6479C84.972 63.3384 86.0193 64.3145 85.9241 65.5406C85.7812 67.0404 85.5432 68.4331 85.1862 69.7663C81.2828 72.0637 70.7744 77.3488 54.9941 77.3488C39.2137 77.3488 28.7054 72.0756 24.8019 69.7663C24.4449 68.4212 24.195 67.0285 24.0641 65.5406C23.957 64.3145 25.0042 63.3384 26.111 63.6479C30.669 64.9573 41.9152 67.7189 54.9941 67.7189C68.073 67.7189 79.3192 64.9573 83.8771 63.6479Z" fill="url(#paint4_linear_0_94)"/>
<path d="M96.0634 21.6524C95.2065 20.4978 94.2902 19.3908 93.3262 18.3433L95.873 16.034C96.8964 17.1648 97.8961 18.3671 98.8125 19.605L96.0634 21.6643V21.6524Z" fill="#1D1D1B"/>
<path d="M12.5799 92.1924C0.226915 77.194 -0.0110908 58.7675 0.000809946 56.7082V53.28C-0.0586937 44.769 3.1426 27.009 15.5075 14.5699C25.1113 4.90426 38.3925 0 54.994 0C70.3103 0 82.8417 4.19002 92.2433 12.4629L89.9703 15.046C81.2232 7.34446 69.4534 3.44012 54.994 3.44012C39.3446 3.44012 26.8845 7.99913 17.9471 16.9982C6.37958 28.6398 3.39252 45.2808 3.44012 53.28V56.732C3.39252 63.7312 5.82025 78.5868 15.2337 90.0141L12.5799 92.2043V92.1924Z" fill="#1D1D1B"/>
<path d="M55.0059 110C38.69 110 25.5635 105.251 15.9954 95.8944L18.3993 93.4423C27.3011 102.144 39.6183 106.56 55.0059 106.56C70.3936 106.56 83.1154 102.001 92.0529 93.0018C103.62 81.3602 106.607 64.7192 106.56 56.7201V53.0776C106.56 51.554 106.334 37.8174 98.3365 24.9497L101.252 23.1404C107.714 33.5321 109.999 45.757 109.999 53.0776V56.7082C110.059 65.2191 106.857 82.9791 94.4925 95.4182C84.8887 105.084 71.6074 109.988 55.0059 109.988V110Z" fill="#1D1D1B"/>
<path d="M55.006 92.8114C46.9254 92.8114 39.6422 90.2879 33.3348 85.3241C28.9672 81.8959 25.8373 77.7654 24.0403 73.0516C23.1597 70.7305 22.5884 68.2545 22.3623 65.6715C22.2552 64.493 22.7312 63.3622 23.6119 62.6242C24.4568 61.9219 25.5398 61.6957 26.5871 61.9933C30.8118 63.1955 42.0342 65.9928 54.9941 65.9928C67.954 65.9928 79.1763 63.1955 83.4011 61.9933C84.4484 61.6957 85.5313 61.9338 86.3763 62.6242C87.2688 63.3622 87.733 64.493 87.6259 65.6715C87.3997 68.2426 86.8404 70.7305 85.9479 73.0516C84.1508 77.7654 81.021 81.8959 76.6534 85.3241C70.3579 90.2879 63.0628 92.8114 54.9822 92.8114H55.006ZM25.6588 65.3025C25.992 67.6355 26.48 69.802 27.2535 71.8256C28.8244 75.9561 31.5854 79.5866 35.465 82.622C41.2249 87.1691 47.6275 89.3713 55.0179 89.3713C62.4082 89.3713 68.7989 87.1691 74.5589 82.622C78.4385 79.5866 81.1995 75.9561 82.7704 71.8256C83.5439 69.802 84.0319 67.6355 84.2342 65.3739C80.0094 66.5404 68.4181 69.421 55.0179 69.421C41.6177 69.421 30.0264 66.5404 25.6707 65.2905L25.6588 65.3025Z" fill="#1D1D1B"/>
<path d="M55.006 79.0629C39.4994 79.0629 28.8839 74.1586 23.9332 71.2423L25.6826 68.2783C29.4195 70.4924 39.7612 75.6228 55.006 75.6228C70.2508 75.6228 80.5926 70.4924 84.3294 68.2783L86.0788 71.2423C81.1281 74.1586 70.5246 79.0629 55.006 79.0629V79.0629Z" fill="#1D1D1B"/>
<path d="M65.2883 89.5736C64.8122 88.3119 62.6582 84.2171 55.006 84.2171C47.3539 84.2171 45.1998 88.3119 44.7238 89.5736L41.5106 88.3476C42.189 86.574 45.1522 80.777 55.006 80.777C64.8598 80.777 67.835 86.574 68.5015 88.3476L65.2883 89.5736V89.5736Z" fill="#1D1D1B"/>
<path d="M44.688 49.8399C44.5333 49.8399 44.3667 49.8161 44.212 49.7685C44.093 49.7327 32.4184 46.4593 22.6241 48.0901L22.0529 44.6976C29.6455 43.4358 37.976 44.8166 42.2603 45.757C38.583 36.7698 23.7665 32.6275 23.5999 32.5798L24.5044 29.2588C25.3256 29.4849 44.5214 34.8653 46.3779 47.8639C46.4612 48.4353 46.247 49.0185 45.8067 49.3994C45.4854 49.6732 45.0926 49.828 44.6761 49.828L44.688 49.8399Z" fill="#1D1D1B"/>
<path d="M65.312 49.8399C64.9074 49.8399 64.5028 49.697 64.1815 49.4113C63.7411 49.0304 63.5269 48.4471 63.6102 47.8758C65.4667 34.8772 84.6626 29.4968 85.4837 29.2707L86.3882 32.5917C86.2216 32.6393 71.4052 36.7937 67.7279 45.7689C72.0121 44.8285 80.3545 43.4477 87.9353 44.7095L87.3641 48.1019C77.5698 46.4712 65.8952 49.7446 65.7761 49.7803C65.6214 49.828 65.4667 49.8518 65.3001 49.8518L65.312 49.8399Z" fill="#1D1D1B"/>
<defs>
<linearGradient id="paint0_linear_0_94" x1="55.006" y1="2.23786" x2="55.006" y2="108.81" gradientUnits="userSpaceOnUse">
<stop stop-color="#FFE100"/>
<stop offset="1" stop-color="#F98900"/>
</linearGradient>
<linearGradient id="paint1_linear_0_94" x1="24.0641" y1="70.4686" x2="85.936" y2="70.4686" gradientUnits="userSpaceOnUse">
<stop stop-color="#B8B4B2"/>
<stop offset="0.14" stop-color="#D0CBC9"/>
<stop offset="0.37" stop-color="#F2EDE9"/>
<stop offset="0.5" stop-color="#FFFAF6"/>
<stop offset="0.64" stop-color="#F8F4F1"/>
<stop offset="0.82" stop-color="#E7E5E3"/>
<stop offset="1" stop-color="#D1D1D1"/>
</linearGradient>
<linearGradient id="paint2_linear_0_94" x1="55.006" y1="91.5734" x2="55.006" y2="63.6598" gradientUnits="userSpaceOnUse">
<stop stop-color="#69101B"/>
<stop offset="0.43" stop-color="#400A10"/>
</linearGradient>
<linearGradient id="paint3_linear_0_94" x1="55.006" y1="65.5881" x2="55.006" y2="77.1464" gradientUnits="userSpaceOnUse">
<stop stop-color="#B8B4B2"/>
<stop offset="0.14" stop-color="#D0CBC9"/>
<stop offset="0.37" stop-color="#F2EDE9"/>
<stop offset="0.5" stop-color="#FFFAF6"/>
<stop offset="0.64" stop-color="#F8F4F1"/>
<stop offset="0.82" stop-color="#E7E5E3"/>
<stop offset="1" stop-color="#D1D1D1"/>
</linearGradient>
<linearGradient id="paint4_linear_0_94" x1="55.006" y1="65.5881" x2="55.006" y2="77.1464" gradientUnits="userSpaceOnUse">
<stop stop-color="#ABABAB" stop-opacity="0.5"/>
<stop offset="0.54" stop-color="#C0C0C0" stop-opacity="0.22"/>
<stop offset="1" stop-color="#D1D1D1" stop-opacity="0"/>
</linearGradient>
</defs>
</svg>
