<svg width="110" height="110" viewBox="0 0 110 110" fill="none" xmlns="http://www.w3.org/2000/svg">
<path d="M55.0119 108.284C7.4039 108.284 1.66715 67.0321 1.73857 56.7249V53.2853C1.66715 42.9782 7.4158 1.7258 55.0119 1.7258C102.62 1.7258 108.357 42.9782 108.285 53.2853V56.7249C108.357 67.0321 102.608 108.284 55.0119 108.284Z" fill="url(#paint0_linear_2_2)"/>
<path d="M96.0738 21.6497C95.2169 20.5071 94.3004 19.3884 93.3364 18.341L95.8834 16.032C96.9189 17.1627 97.9067 18.3648 98.8232 19.6026L96.0738 21.6616V21.6497Z" fill="#1D1D1B"/>
<path d="M12.5812 92.1811C0.226957 77.1845 -0.011092 58.7602 0.000810033 56.7012V53.2734C-0.0587 44.7635 3.14294 27.0056 15.5091 14.568C25.1141 4.90362 38.3967 0 55 0C70.3179 0 82.8507 4.18951 92.2414 12.4614L89.9681 15.0442C81.2201 7.34356 69.4491 3.4397 54.9881 3.4397C39.337 3.4397 26.8756 7.99815 17.9371 16.9961C6.36839 28.6362 3.38099 45.2753 3.42859 53.2734V56.7249C3.38099 63.7233 5.8209 78.589 15.2235 90.003L12.5693 92.193L12.5812 92.1811Z" fill="#1D1D1B"/>
<path d="M55.0119 109.998C38.6943 109.998 25.5663 105.249 15.9971 95.8945L18.4014 93.4427C27.3041 102.143 39.6226 106.559 55.0119 106.559C70.4012 106.559 83.1245 102 92.0629 93.0023C103.632 81.3621 106.619 64.7231 106.571 56.7249V53.0829C106.571 51.5595 106.345 37.8246 98.3352 24.9585L101.251 23.1494C107.714 33.5399 109.999 45.7632 109.999 53.0829V56.7131C110.059 65.223 106.857 82.9808 94.4909 95.4184C84.886 105.083 71.6033 109.986 55 109.986L55.0119 109.998Z" fill="#1D1D1B"/>
<path d="M32.6599 77.3631C31.0769 77.3631 29.7915 76.0777 29.7915 74.4947V51.5595C29.7915 49.9766 31.0769 48.6911 32.6599 48.6911H41.2651V77.3631H32.6599V77.3631Z" fill="#DCD8FF" stroke="black" stroke-width="2" stroke-miterlimit="10"/>
<path d="M81.244 45.8228H64.7002V31.4927C64.7002 25.756 55.8808 25.756 55.8808 25.756C55.8808 25.756 55.8808 37.2295 52.941 40.086C51.3461 41.6451 48.9062 46.8225 46.99 48.6911V77.3631H77.5067C80.3156 77.3869 82.7436 75.4111 83.2911 72.6499L87.0165 52.5831C87.5639 49.441 85.4573 46.4536 82.3032 45.9061C81.9581 45.8466 81.601 45.8228 81.244 45.8228V45.8228Z" fill="#DCD8FF" stroke="black" stroke-width="2" stroke-miterlimit="10"/>
<defs>
<linearGradient id="paint0_linear_2_2" x1="55.012" y1="2.23759" x2="55.012" y2="108.796" gradientUnits="userSpaceOnUse">
<stop stop-color="#DBD6FF"/>
<stop offset="1" stop-color="#5242FF"/>
</linearGradient>
</defs>
</svg>
