<svg width="110" height="110" viewBox="0 0 110 110" fill="none" xmlns="http://www.w3.org/2000/svg">
<path d="M54.9997 108.285C7.3915 108.285 1.6547 67.0324 1.72611 56.7252V53.2856C1.6547 42.9784 7.4034 1.72581 54.9997 1.72581C102.608 1.72581 108.345 42.9784 108.273 53.2856V56.7252C108.345 67.0324 102.596 108.285 54.9997 108.285Z" fill="url(#paint0_linear_0_145)"/>
<path d="M83.886 63.6522C84.981 63.3428 86.0284 64.3188 85.9331 65.5447C85.7903 67.0443 85.5523 68.4369 85.1952 69.7699C81.2913 72.067 70.7818 77.3515 54.9997 77.3515C39.2176 77.3515 28.708 72.0789 24.8042 69.7699C24.4471 68.425 24.1971 67.0324 24.0662 65.5447C23.9591 64.3188 25.0065 63.3428 26.1134 63.6522C30.6719 64.9615 41.9193 67.7227 54.9997 67.7227C68.0801 67.7227 79.3275 64.9615 83.886 63.6522V63.6522Z" fill="url(#paint1_linear_0_145)"/>
<path d="M66.8898 88.9679C63.2001 90.3962 59.2248 91.0984 54.9996 91.0984C50.7744 91.0984 46.7991 90.3962 43.1094 88.9679C43.6807 87.4683 46.2397 82.5051 54.9996 82.5051C63.7595 82.5051 66.3185 87.4683 66.8898 88.9679Z" fill="#F41934"/>
<path d="M84.3501 72.4478C82.4934 77.3277 79.2679 81.1125 75.6021 83.9809C72.8646 86.1233 69.9843 87.8015 66.8898 88.9679C66.3185 87.4683 63.7595 82.5051 54.9996 82.5051C46.2397 82.5051 43.6807 87.4683 43.1094 88.9679C40.0149 87.8015 37.1346 86.1352 34.3971 83.9809C30.7313 81.1125 27.5058 77.3277 25.6491 72.4478C25.3278 71.5909 25.0302 70.6982 24.8041 69.7699C28.708 72.067 39.2175 77.3515 54.9996 77.3515C70.7817 77.3515 81.2913 72.0789 85.1951 69.7699C84.969 70.6982 84.6833 71.5909 84.3501 72.4478V72.4478Z" fill="url(#paint2_linear_0_145)"/>
<path d="M83.886 63.6522C84.981 63.3428 86.0284 64.3188 85.9331 65.5447C85.7903 67.0443 85.5523 68.4369 85.1952 69.7699C81.2913 72.067 70.7818 77.3515 54.9997 77.3515C39.2176 77.3515 28.708 72.0789 24.8042 69.7699C24.4471 68.425 24.1971 67.0324 24.0662 65.5447C23.9591 64.3188 25.0065 63.3428 26.1134 63.6522C30.6719 64.9615 41.9193 67.7227 54.9997 67.7227C68.0801 67.7227 79.3275 64.9615 83.886 63.6522V63.6522Z" fill="url(#paint3_linear_0_145)"/>
<path d="M100.49 22.0902C92.0867 19.8883 87.6591 24.066 87.6591 24.066C87.6591 24.066 85.362 18.1387 76.9592 15.9369C68.5563 13.735 65.069 19.8645 64.1764 23.1376C63.498 25.5894 63.4027 28.1603 63.9502 30.6478C65.1999 36.3727 69.4133 46.9774 79.0658 56.7133C92.42 52.988 100.204 45.5135 104.215 41.1692C105.965 39.2768 107.202 37.0035 107.869 34.5517C108.773 31.2667 108.892 24.2802 100.49 22.0783V22.0902Z" fill="#EC3A4A"/>
<path d="M100.49 22.0902C92.0867 19.8883 87.6591 24.066 87.6591 24.066C87.6591 24.066 85.362 18.1387 76.9592 15.9369C68.5563 13.735 65.069 19.8645 64.1764 23.1376C63.498 25.5894 63.4027 28.1603 63.9502 30.6478C65.1999 36.3727 69.4133 46.9774 79.0658 56.7133C92.42 52.988 100.204 45.5135 104.215 41.1692C105.965 39.2768 107.202 37.0035 107.869 34.5517C108.773 31.2786 108.892 24.2802 100.49 22.0783V22.0902Z" fill="url(#paint4_linear_0_145)"/>
<path d="M75.5905 19.0076C84.3385 21.2928 86.7784 27.2676 86.7784 27.2676C86.7784 27.2676 91.3369 23.1257 100.085 25.4109C105.643 26.863 107.643 30.2313 108.131 33.3377C108.69 29.779 107.964 24.0422 100.49 22.0902C92.0867 19.8883 87.6592 24.066 87.6592 24.066C87.6592 24.066 85.3621 18.1388 76.9592 15.9369C69.5799 14.0088 65.9974 18.4958 64.6168 21.8403C66.6401 19.4361 70.0917 17.5675 75.5786 19.0076H75.5905Z" fill="url(#paint5_linear_0_145)"/>
<path d="M96.7166 34.5636C96.5023 36.4084 98.0139 38.0033 99.7397 37.801C100.371 37.7295 100.978 37.5867 101.573 37.3606C103.382 36.6584 104.965 34.8492 104.846 32.7902C104.786 31.7428 104.286 30.7549 103.632 29.9694C102.394 28.4936 98.0139 26.1726 96.5261 28.4578C95.8358 29.5171 96.7285 31.3976 96.788 32.5641C96.8237 33.2306 96.7999 33.8971 96.7285 34.5517L96.7166 34.5636Z" fill="url(#paint6_linear_0_145)"/>
<path d="M80.9702 28.7792C80.8869 30.0051 81.4939 31.0644 82.1842 30.9335C82.4342 30.8859 82.6841 30.7907 82.9222 30.6359C83.6482 30.1718 84.279 28.9578 84.2314 27.589C84.2076 26.8868 84.0052 26.2322 83.7434 25.7085C83.2435 24.7206 81.4939 23.1852 80.8988 24.7087C80.625 25.4109 80.9821 26.6725 81.0059 27.4462C81.0178 27.8865 81.0059 28.3269 80.9821 28.7673L80.9702 28.7792Z" fill="url(#paint7_linear_0_145)"/>
<path d="M9.51008 22.0902C17.9129 19.8883 22.3405 24.066 22.3405 24.066C22.3405 24.066 24.6376 18.1387 33.0405 15.9369C41.4433 13.735 44.9306 19.8645 45.8233 23.1376C46.5017 25.5894 46.5969 28.1603 46.0494 30.6478C44.7997 36.3727 40.5864 46.9774 30.9338 56.7133C17.5797 52.988 9.79573 45.5135 5.78474 41.1692C4.03513 39.2768 2.79732 37.0035 2.13081 34.5517C1.22625 31.2786 1.10723 24.2802 9.51008 22.0783V22.0902Z" fill="url(#paint8_linear_0_145)"/>
<path d="M34.4211 19.0076C25.6731 21.2928 23.2332 27.2676 23.2332 27.2676C23.2332 27.2676 18.6747 23.1257 9.92669 25.4109C4.36843 26.863 2.36888 30.2313 1.8809 33.3377C1.3215 29.779 2.04752 24.0422 9.52202 22.0902C17.9249 19.8883 22.3524 24.066 22.3524 24.066C22.3524 24.066 24.6495 18.1388 33.0524 15.9369C40.4317 14.0088 44.0142 18.4958 45.3948 21.8403C43.3715 19.4361 39.9199 17.5675 34.433 19.0076H34.4211Z" fill="url(#paint9_linear_0_145)"/>
<path d="M36.1945 28.3626C37.0395 30.017 39.1819 30.505 40.503 29.3743C40.9791 28.9696 41.4195 28.5174 41.7885 27.9937C42.9072 26.4107 43.2167 24.0184 41.9789 22.3759C41.3481 21.5308 40.384 20.9952 39.3961 20.7096C37.5394 20.1621 32.6239 20.662 32.6477 23.3994C32.6477 24.6611 34.4449 25.7323 35.1471 26.6725C35.5399 27.2081 35.8969 27.7675 36.1945 28.3626V28.3626Z" fill="url(#paint10_linear_0_145)"/>
<path d="M19.8888 32.2665C20.4958 33.3377 21.5908 33.8852 22.0907 33.3853C22.2692 33.2068 22.4239 32.9925 22.5429 32.7307C22.8881 31.9451 22.7453 30.5883 21.9359 29.4695C21.5313 28.8982 20.9957 28.4697 20.4839 28.1722C19.5198 27.6247 17.2108 27.3152 17.556 28.9101C17.7226 29.648 18.7105 30.4931 19.1627 31.1358C19.4246 31.4928 19.6626 31.8737 19.8769 32.2546L19.8888 32.2665Z" fill="url(#paint11_linear_0_145)"/>
<path d="M89.98 15.0442C81.2319 7.34359 69.4608 3.43971 54.9998 3.43971C40.5388 3.43971 28.7915 7.34358 20.0434 15.0323L17.7701 12.4496C27.1609 4.18955 39.6937 0 54.9998 0C70.3058 0 82.8506 4.18953 92.2532 12.4615L89.98 15.0442V15.0442Z" fill="#1D1D1B"/>
<path d="M12.5808 92.1934C0.22647 77.1968 -0.0115701 58.7605 0.000332006 56.7133V53.2856C0.000332006 51.8216 0.0836474 48.7033 0.833477 44.3947L4.22556 44.9898C3.49954 49.1912 3.42813 52.1787 3.44003 53.2736V56.7252C3.39242 63.7117 5.82044 78.5774 15.235 90.0034L12.5808 92.1934V92.1934Z" fill="#1D1D1B"/>
<path d="M54.9998 109.999C38.682 109.999 25.5541 105.25 15.9848 95.8949L18.389 93.4431C27.2918 102.144 39.6104 106.559 54.9998 106.559C70.3891 106.559 83.1124 102.001 92.0509 93.0027C103.62 81.3625 106.607 64.7234 106.56 56.7252V53.0832C106.56 51.7383 106.452 48.9056 105.774 44.9779L109.166 44.3828C109.892 48.5723 109.999 51.6312 109.999 53.0832V56.7133C110.059 65.2233 106.857 82.9812 94.4908 95.4188C84.8859 105.095 71.6031 109.987 54.9998 109.987V109.999Z" fill="#1D1D1B"/>
<path d="M54.9998 92.8123C46.9183 92.8123 39.6343 90.289 33.3262 85.3259C28.9581 81.8981 25.8279 77.7681 24.0307 73.0548C23.1499 70.7339 22.5786 68.2583 22.3525 65.6756C22.2454 64.4973 22.7214 63.3666 23.6022 62.6286C24.4472 61.9264 25.5303 61.7003 26.5777 61.9978C30.8029 63.1999 42.0266 65.9969 54.9879 65.9969C67.9493 65.9969 79.1729 63.1999 83.3982 61.9978C84.4455 61.7003 85.5286 61.9383 86.3737 62.6286C87.2663 63.3666 87.7305 64.4973 87.6234 65.6756C87.3972 68.2464 86.8379 70.7339 85.9452 73.0548C84.148 77.7681 81.0177 81.8981 76.6497 85.3259C70.3535 90.289 63.0575 92.8123 54.976 92.8123H54.9998ZM25.6494 65.3066C25.9826 67.6394 26.4706 69.8056 27.2442 71.8289C28.8153 75.959 31.5766 79.5891 35.4567 82.6241C41.2172 87.1707 47.6206 89.3726 54.9998 89.3726C62.3791 89.3726 68.7824 87.1707 74.543 82.6241C78.4231 79.5891 81.1844 75.9471 82.7554 71.8289C83.5291 69.8056 84.0171 67.6394 84.2194 65.378C79.9942 66.5444 68.4016 69.4247 54.9998 69.4247C41.5981 69.4247 30.0055 66.5444 25.6494 65.2947V65.3066Z" fill="#1D1D1B"/>
<path d="M54.9999 79.0654C39.4915 79.0654 28.8748 74.1737 23.9236 71.2458L25.6732 68.2821C29.4104 70.484 39.7533 75.6257 54.9999 75.6257C70.2464 75.6257 80.5893 70.4959 84.3265 68.2821L86.0762 71.2458C81.1249 74.1618 70.5202 79.0654 54.9999 79.0654Z" fill="#1D1D1B"/>
<path d="M65.2952 89.5749C64.8191 88.3252 62.6649 84.219 55.0118 84.219C47.3588 84.219 45.2045 88.3133 44.7284 89.5749L41.5149 88.3609C42.1933 86.5875 45.1569 80.7912 55.0118 80.7912C64.8667 80.7912 67.8423 86.5875 68.5088 88.3609L65.2952 89.5749Z" fill="#1D1D1B"/>
<path d="M79.0657 58.4391C78.6134 58.4391 78.173 58.2606 77.8398 57.9273C66.3067 46.299 63.0098 34.385 62.26 31.0168C61.6649 28.315 61.7482 25.4347 62.5099 22.6853C63.6763 18.4244 68.1396 11.8545 77.3875 14.2706C83.5885 15.8893 86.7901 19.4004 88.2303 21.5784C90.456 20.3287 94.7407 18.8052 100.918 20.412C104.465 21.3404 107.036 23.1376 108.547 25.7561C110.761 29.5885 109.856 33.8018 109.523 35.004C108.773 37.7414 107.369 40.2766 105.476 42.3356C102.763 45.2635 94.5146 54.1901 79.518 58.3677C79.3632 58.4153 79.2085 58.4272 79.0538 58.4272L79.0657 58.4391ZM73.6146 17.1985C67.9135 17.1985 66.1639 22.4116 65.8306 23.5899C65.2236 25.8037 65.1522 28.1127 65.6283 30.2788C67.0089 36.575 71.3889 46.2395 79.5775 54.7852C93.0149 50.7504 100.466 42.7046 102.953 40.0147C104.477 38.3722 105.607 36.3251 106.214 34.1113C106.452 33.2305 107.119 30.1717 105.572 27.4938C104.536 25.7084 102.679 24.4468 100.049 23.7565C92.7531 21.8522 88.9682 25.1848 88.8135 25.3276C88.3969 25.7084 87.8137 25.8632 87.2543 25.7322C86.7068 25.6013 86.2426 25.2086 86.0403 24.6849C85.957 24.4826 83.886 19.5313 76.5068 17.6031C75.4356 17.3294 74.4715 17.1985 73.5907 17.1985H73.6146Z" fill="#1D1D1B"/>
<path d="M30.9457 58.4391C30.7909 58.4391 30.6362 58.4153 30.4815 58.3796C15.4849 54.202 7.23675 45.2755 4.52308 42.3476C2.63065 40.3004 1.22621 37.7653 0.476378 35.0159C0.143121 33.8138 -0.761436 29.6004 1.45235 25.768C2.96391 23.1495 5.52285 21.3523 9.08157 20.4239C15.2587 18.8053 19.5435 20.3406 21.7692 21.5904C23.2212 19.4123 26.411 15.9012 32.6119 14.2825C41.8717 11.8664 46.3231 18.4244 47.4895 22.6972C48.2393 25.4466 48.3346 28.3269 47.7395 31.0287C47.0015 34.397 43.6928 46.311 32.1597 57.9393C31.8383 58.2725 31.386 58.4511 30.9338 58.4511L30.9457 58.4391ZM14.2709 23.1614C12.9973 23.1614 11.5691 23.3281 9.95042 23.7446C7.32006 24.4349 5.46334 25.6846 4.42786 27.4819C2.88059 30.1598 3.54711 33.2306 3.78515 34.0994C4.39216 36.3132 5.52285 38.3604 7.04632 40.0029C9.53385 42.6927 16.9845 50.7504 30.422 54.7733C38.6106 46.2276 42.9905 36.5751 44.3712 30.267C44.8473 28.1008 44.7758 25.7918 44.1688 23.578C43.788 22.2092 41.5028 15.4846 33.4689 17.5794C26.1015 19.5075 24.0186 24.4707 23.9353 24.673C23.7211 25.1967 23.2569 25.5895 22.7094 25.7204C22.15 25.8394 21.5787 25.6847 21.1622 25.3038C21.0431 25.1967 18.7222 23.1495 14.259 23.1495L14.2709 23.1614Z" fill="#1D1D1B"/>
<defs>
<linearGradient id="paint0_linear_0_145" x1="54.9997" y1="2.24951" x2="54.9997" y2="108.809" gradientUnits="userSpaceOnUse">
<stop stop-color="#FFE100"/>
<stop offset="1" stop-color="#F98900"/>
</linearGradient>
<linearGradient id="paint1_linear_0_145" x1="24.0662" y1="70.4721" x2="85.945" y2="70.4721" gradientUnits="userSpaceOnUse">
<stop stop-color="#B8B4B2"/>
<stop offset="0.14" stop-color="#D0CBC9"/>
<stop offset="0.37" stop-color="#F2EDE9"/>
<stop offset="0.5" stop-color="#FFFAF6"/>
<stop offset="0.64" stop-color="#F8F4F1"/>
<stop offset="0.82" stop-color="#E7E5E3"/>
<stop offset="1" stop-color="#D1D1D1"/>
</linearGradient>
<linearGradient id="paint2_linear_0_145" x1="54.9996" y1="91.5745" x2="54.9996" y2="63.6641" gradientUnits="userSpaceOnUse">
<stop stop-color="#69101B"/>
<stop offset="0.43" stop-color="#400A10"/>
</linearGradient>
<linearGradient id="paint3_linear_0_145" x1="54.9997" y1="65.5923" x2="54.9997" y2="77.1492" gradientUnits="userSpaceOnUse">
<stop stop-color="#B8B4B2"/>
<stop offset="0.14" stop-color="#D0CBC9"/>
<stop offset="0.37" stop-color="#F2EDE9"/>
<stop offset="0.5" stop-color="#FFFAF6"/>
<stop offset="0.64" stop-color="#F8F4F1"/>
<stop offset="0.82" stop-color="#E7E5E3"/>
<stop offset="1" stop-color="#D1D1D1"/>
</linearGradient>
<linearGradient id="paint4_linear_0_145" x1="90.4442" y1="15.8297" x2="76.8164" y2="56.0587" gradientUnits="userSpaceOnUse">
<stop stop-color="#FF5F6F"/>
<stop offset="0.35" stop-color="#FF2D44"/>
<stop offset="0.72" stop-color="#D41E32"/>
<stop offset="0.85" stop-color="#D61F33"/>
<stop offset="0.92" stop-color="#DD2236"/>
<stop offset="0.97" stop-color="#EB283D"/>
<stop offset="1" stop-color="#F82F44"/>
</linearGradient>
<linearGradient id="paint5_linear_0_145" x1="88.8136" y1="15.3061" x2="85.8143" y2="30.4336" gradientUnits="userSpaceOnUse">
<stop stop-color="#FF8A95"/>
<stop offset="0.66" stop-color="#FF495C"/>
<stop offset="1" stop-color="#FF2D44"/>
</linearGradient>
<linearGradient id="paint6_linear_0_145" x1="101.465" y1="28.7554" x2="98.359" y2="37.6105" gradientUnits="userSpaceOnUse">
<stop stop-color="#FF5F5F"/>
<stop offset="0.28" stop-color="#FF555A"/>
<stop offset="0.75" stop-color="#FF3D4C"/>
<stop offset="1" stop-color="#FF2D44"/>
</linearGradient>
<linearGradient id="paint7_linear_0_145" x1="83.1602" y1="24.8515" x2="81.1249" y2="30.6717" gradientUnits="userSpaceOnUse">
<stop stop-color="#FF5F5F"/>
<stop offset="0.28" stop-color="#FF555A"/>
<stop offset="0.75" stop-color="#FF3D4C"/>
<stop offset="1" stop-color="#FF2D44"/>
</linearGradient>
<linearGradient id="paint8_linear_0_145" x1="19.5673" y1="15.8297" x2="33.1952" y2="56.0587" gradientUnits="userSpaceOnUse">
<stop stop-color="#FF5F6F"/>
<stop offset="0.35" stop-color="#FF2D44"/>
<stop offset="0.72" stop-color="#D41E32"/>
<stop offset="0.85" stop-color="#D61F33"/>
<stop offset="0.92" stop-color="#DD2236"/>
<stop offset="0.97" stop-color="#EB283D"/>
<stop offset="1" stop-color="#F82F44"/>
</linearGradient>
<linearGradient id="paint9_linear_0_145" x1="21.1979" y1="15.3061" x2="24.1973" y2="30.4336" gradientUnits="userSpaceOnUse">
<stop stop-color="#FF8A95"/>
<stop offset="0.66" stop-color="#FF495C"/>
<stop offset="1" stop-color="#FF2D44"/>
</linearGradient>
<linearGradient id="paint10_linear_0_145" x1="36.9353" y1="20.8887" x2="39.2626" y2="29.9798" gradientUnits="userSpaceOnUse">
<stop stop-color="#FF5F5F"/>
<stop offset="0.28" stop-color="#FF555A"/>
<stop offset="0.75" stop-color="#FF3D4C"/>
<stop offset="1" stop-color="#FF2D44"/>
</linearGradient>
<linearGradient id="paint11_linear_0_145" x1="19.5324" y1="27.7846" x2="21.0575" y2="33.7628" gradientUnits="userSpaceOnUse">
<stop stop-color="#FF5F5F"/>
<stop offset="0.28" stop-color="#FF555A"/>
<stop offset="0.75" stop-color="#FF3D4C"/>
<stop offset="1" stop-color="#FF2D44"/>
</linearGradient>
</defs>
</svg>
