<svg width="110" height="110" viewBox="0 0 110 110" fill="none" xmlns="http://www.w3.org/2000/svg">
<path d="M55.0059 108.284C7.39275 108.284 1.65537 67.0321 1.72679 56.725V53.2853C1.65537 42.9781 7.40465 1.72578 55.0059 1.72578C102.619 1.72578 108.357 42.9781 108.285 53.2853V56.725C108.357 67.0321 102.607 108.284 55.0059 108.284Z" fill="url(#paint0_linear_0_238)"/>
<path d="M68.302 83.8972C66.7664 81.862 61.3743 75.6254 53.2919 75.6254C45.2096 75.6254 39.8174 81.862 38.2819 83.8972C37.9843 84.29 37.8295 84.7661 37.8295 85.2541C37.8295 87.1465 40.0912 88.301 41.829 87.2774C43.7098 86.1705 45.9595 84.9327 47.9592 83.8377C51.2445 82.0524 55.3631 82.0524 58.6484 83.8377C60.6482 84.9327 62.8979 86.1705 64.7786 87.2774C66.5165 88.2891 68.7781 87.1465 68.7781 85.2541C68.7781 84.7661 68.6234 84.3019 68.3258 83.8972H68.302Z" fill="url(#paint1_linear_0_238)"/>
<path d="M82.5144 61.8786C86.3142 61.8786 89.3945 58.7986 89.3945 54.9992C89.3945 51.1999 86.3142 48.1199 82.5144 48.1199C78.7147 48.1199 75.6343 51.1999 75.6343 54.9992C75.6343 58.7986 78.7147 61.8786 82.5144 61.8786Z" fill="black"/>
<path d="M36.1035 61.8786C39.9033 61.8786 42.9836 58.7986 42.9836 54.9992C42.9836 51.1999 39.9033 48.1199 36.1035 48.1199C32.3037 48.1199 29.2234 51.1999 29.2234 54.9992C29.2234 58.7986 32.3037 61.8786 36.1035 61.8786Z" fill="black"/>
<path d="M66.1594 89.3722C65.3737 89.3722 64.5881 89.1698 63.8977 88.7651C62.0289 87.6702 59.7911 86.4324 57.8151 85.3493C55.0298 83.8258 51.5659 83.8258 48.7686 85.3493C46.7808 86.4324 44.5549 87.6702 42.686 88.7651C41.3053 89.5745 39.5793 89.5864 38.1866 88.789C36.8772 88.0391 36.0916 86.718 36.0916 85.254C36.0916 84.3852 36.3654 83.5639 36.8891 82.8617C38.4842 80.7551 44.3644 73.9115 53.28 73.9115C62.1956 73.9115 68.0758 80.767 69.6589 82.8617C70.1827 83.5639 70.4564 84.3852 70.4564 85.254C70.4564 86.718 69.6708 88.0391 68.3615 88.789C67.6711 89.1817 66.8974 89.3841 66.1355 89.3841L66.1594 89.3722ZM53.2919 80.767C55.4226 80.767 57.5533 81.2907 59.4578 82.3262C61.4694 83.4331 63.7311 84.6828 65.6356 85.7896C66.0165 86.0158 66.4212 85.9325 66.6831 85.7896C66.8497 85.6944 67.0402 85.5159 67.0402 85.2421C67.0402 85.1231 67.0045 85.016 66.9331 84.9208C65.588 83.1355 60.6124 77.3273 53.2919 77.3273C45.9713 77.3273 40.9958 83.1355 39.6507 84.9208C39.5793 85.016 39.5436 85.1231 39.5436 85.2421C39.5436 85.5278 39.734 85.6944 39.9007 85.7896C40.1506 85.9325 40.5554 86.0158 40.9482 85.7896C42.8408 84.6828 45.1024 83.4212 47.126 82.3262C49.0305 81.2907 51.1612 80.767 53.2919 80.767V80.767Z" fill="#1D1D1B"/>
<path d="M91.7039 39.123C80.6814 29.6718 69.8851 34.0522 69.4328 34.2426L68.0877 31.0764C68.6115 30.8502 81.2528 25.6246 93.9417 36.5043L91.7039 39.1111V39.123Z" fill="#1D1D1B"/>
<path d="M18.3081 39.1231L16.0703 36.5162C28.7711 25.6247 41.4005 30.8622 41.9242 31.0883L40.5791 34.2546C40.1268 34.0642 29.3305 29.6837 18.3081 39.1349V39.1231Z" fill="#1D1D1B"/>
<path d="M82.5145 63.5924C77.777 63.5924 73.9203 59.7362 73.9203 54.9992C73.9203 50.2622 77.777 46.4059 82.5145 46.4059C87.252 46.4059 91.1087 50.2622 91.1087 54.9992C91.1087 59.7362 87.252 63.5924 82.5145 63.5924V63.5924ZM82.5145 49.8456C79.6696 49.8456 77.3604 52.1546 77.3604 54.9992C77.3604 57.8438 79.6696 60.1528 82.5145 60.1528C85.3594 60.1528 87.6687 57.8438 87.6687 54.9992C87.6687 52.1546 85.3594 49.8456 82.5145 49.8456V49.8456Z" fill="#1D1D1B"/>
<path d="M66.695 56.0357L63.9454 53.9645C64.1715 53.6551 69.7661 46.4059 82.5145 46.4059V49.846C71.5754 49.846 66.8855 55.7858 66.695 56.0476V56.0357Z" fill="#1D1D1B"/>
<path d="M36.1035 63.5924C31.3659 63.5924 27.5093 59.7362 27.5093 54.9992C27.5093 50.2622 31.3659 46.4059 36.1035 46.4059C40.841 46.4059 44.6976 50.2622 44.6976 54.9992C44.6976 59.7362 40.841 63.5924 36.1035 63.5924ZM36.1035 49.8456C33.2586 49.8456 30.9493 52.1546 30.9493 54.9992C30.9493 57.8438 33.2586 60.1528 36.1035 60.1528C38.9483 60.1528 41.2576 57.8438 41.2576 54.9992C41.2576 52.1546 38.9483 49.8456 36.1035 49.8456V49.8456Z" fill="#1D1D1B"/>
<path d="M20.284 56.0357L17.5344 53.9645C17.7605 53.6551 23.3551 46.4059 36.1035 46.4059V49.846C25.1644 49.846 20.4745 55.7858 20.284 56.0476V56.0357Z" fill="#1D1D1B"/>
<path d="M96.0842 21.6622C95.2271 20.5076 94.3106 19.4006 93.3464 18.3531L95.8937 16.032C96.9174 17.1628 97.9173 18.365 98.8339 19.603L96.0842 21.6622V21.6622Z" fill="#1D1D1B"/>
<path d="M12.5826 92.181C0.226973 77.1845 -0.0110932 58.7602 0.000810121 56.7012V53.2734C-0.0587064 44.7635 3.14328 27.0057 15.5108 14.5681C25.1168 4.89175 38.4009 0 55.006 0C70.3255 0 82.8597 4.18951 92.2514 12.4614L89.9779 15.0442C81.2289 7.34356 69.4566 3.4397 54.994 3.4397C39.3412 3.4397 26.8785 7.99818 17.9391 16.9961C6.36907 28.6363 3.38134 45.2752 3.42896 53.2734V56.725C3.38134 63.7234 5.82152 78.5889 15.2251 90.003L12.5707 92.193L12.5826 92.181Z" fill="#1D1D1B"/>
<path d="M55.006 109.998C38.6865 109.998 25.5572 105.249 15.9869 95.8944L18.3914 93.4426C27.2951 102.143 39.615 106.559 55.006 106.559C70.3969 106.559 83.1215 102 92.0609 93.0023C103.631 81.3621 106.619 64.7231 106.571 56.725V53.0829C106.571 51.5595 106.345 37.8364 98.334 24.9585L101.25 23.1375C107.714 33.5279 109.999 45.7513 109.999 53.071V56.7011C110.059 65.2111 106.857 82.9689 94.4892 95.4065C84.8832 105.083 71.5991 109.975 54.994 109.975L55.006 109.998Z" fill="#1D1D1B"/>
<defs>
<linearGradient id="paint0_linear_0_238" x1="55.0059" y1="2.24947" x2="55.0059" y2="108.808" gradientUnits="userSpaceOnUse">
<stop stop-color="#FFE100"/>
<stop offset="1" stop-color="#F98900"/>
</linearGradient>
<linearGradient id="paint1_linear_0_238" x1="53.2919" y1="87.6583" x2="53.2919" y2="77.4821" gradientUnits="userSpaceOnUse">
<stop stop-color="#69101B"/>
<stop offset="1" stop-color="#400A10"/>
</linearGradient>
</defs>
</svg>
