<svg width="110" height="110" viewBox="0 0 110 110" fill="none" xmlns="http://www.w3.org/2000/svg">
<path d="M55.0059 108.284C7.39276 108.284 1.65537 67.0275 1.72679 56.7192V53.2791C1.65537 42.9709 7.40467 1.71404 55.0059 1.71404C102.619 1.71404 108.357 42.9709 108.285 53.2791V56.7192C108.357 67.0275 102.607 108.284 55.0059 108.284Z" fill="url(#paint0_linear_0_203)"/>
<path d="M73.9203 48.125C76.7669 48.125 79.0744 44.2773 79.0744 39.5308C79.0744 34.7844 76.7669 30.9367 73.9203 30.9367C71.0738 30.9367 68.7662 34.7844 68.7662 39.5308C68.7662 44.2773 71.0738 48.125 73.9203 48.125Z" fill="black"/>
<path d="M36.1035 48.125C38.95 48.125 41.2576 44.2773 41.2576 39.5308C41.2576 34.7844 38.95 30.9367 36.1035 30.9367C33.2569 30.9367 30.9493 34.7844 30.9493 39.5308C30.9493 44.2773 33.2569 48.125 36.1035 48.125Z" fill="black"/>
<path d="M55.0059 91.0959C60.699 91.0959 65.3141 84.9406 65.3141 77.3476C65.3141 69.7546 60.699 63.5993 55.0059 63.5993C49.3128 63.5993 44.6976 69.7546 44.6976 77.3476C44.6976 84.9406 49.3128 91.0959 55.0059 91.0959Z" fill="url(#paint1_linear_0_203)"/>
<path d="M96.0842 21.6521C95.2272 20.5093 94.3107 19.3904 93.3465 18.3429L95.8937 16.0337C96.9293 17.1645 97.9173 18.3668 98.8339 19.6047L96.0842 21.664V21.6521Z" fill="#1D1D1B"/>
<path d="M12.5826 92.191C0.226982 77.1928 -0.0110932 58.7666 0.000810112 56.7073V53.2791C-0.0587064 44.7683 3.14332 27.0086 15.5108 14.5696C25.1168 4.90415 38.4009 0 55.006 0C70.3255 0 82.8596 4.18993 92.2513 12.4627L89.9779 15.0457C81.2289 7.34431 69.4566 3.44003 54.994 3.44003C39.3412 3.44003 26.8785 7.99901 17.9391 16.9979C6.36908 28.6393 3.38135 45.2801 3.42897 53.2791V56.7311C3.38135 63.7302 5.82157 78.5975 15.2252 90.0127L12.5707 92.2029L12.5826 92.191Z" fill="#1D1D1B"/>
<path d="M55.006 109.998C38.6866 109.998 25.5572 105.249 15.9869 95.8929L18.3914 93.4409C27.2951 102.142 39.615 106.558 55.006 106.558C70.3969 106.558 83.1216 101.999 92.0609 93.0004C103.631 81.359 106.619 64.7182 106.571 56.7192V53.0768C106.571 51.5532 106.345 37.8168 98.3339 24.9493L101.25 23.14C107.714 33.5315 109.999 45.7563 109.999 53.0768V56.7073C110.059 65.2181 106.857 82.9778 94.4892 95.4168C84.8832 105.094 71.5992 109.986 54.9941 109.986L55.006 109.998Z" fill="#1D1D1B"/>
<path d="M73.9203 49.8391C70.0636 49.8391 67.0402 45.3039 67.0402 39.5308C67.0402 33.7577 70.0636 29.2226 73.9203 29.2226C77.777 29.2226 80.8004 33.7577 80.8004 39.5308C80.8004 45.3039 77.777 49.8391 73.9203 49.8391ZM73.9203 32.6507C72.3015 32.6507 70.4802 35.5909 70.4802 39.5308C70.4802 43.4708 72.2895 46.4109 73.9203 46.4109C75.5511 46.4109 77.3603 43.4708 77.3603 39.5308C77.3603 35.5909 75.5511 32.6507 73.9203 32.6507Z" fill="#1D1D1B"/>
<path d="M36.1035 49.8391C32.2469 49.8391 29.2234 45.3039 29.2234 39.5308C29.2234 33.7577 32.2469 29.2226 36.1035 29.2226C39.9602 29.2226 42.9836 33.7577 42.9836 39.5308C42.9836 45.3039 39.9602 49.8391 36.1035 49.8391ZM36.1035 32.6507C34.4847 32.6507 32.6635 35.5908 32.6635 39.5308C32.6635 43.4708 34.4728 46.4109 36.1035 46.4109C37.7343 46.4109 39.5436 43.4708 39.5436 39.5308C39.5436 35.5908 37.7343 32.6507 36.1035 32.6507Z" fill="#1D1D1B"/>
<path d="M55.006 92.81C48.3758 92.81 42.9717 85.8703 42.9717 77.3357C42.9717 68.801 48.3758 61.8614 55.006 61.8614C61.6361 61.8614 67.0402 68.801 67.0402 77.3357C67.0402 85.8703 61.6361 92.81 55.006 92.81ZM55.006 65.3134C50.2684 65.3134 46.4117 70.7175 46.4117 77.3476C46.4117 83.9777 50.2684 89.3818 55.006 89.3818C59.7435 89.3818 63.6001 83.9777 63.6001 77.3476C63.6001 70.7175 59.7435 65.3134 55.006 65.3134Z" fill="#1D1D1B"/>
<defs>
<linearGradient id="paint0_linear_0_203" x1="55.0059" y1="2.23779" x2="55.0059" y2="108.808" gradientUnits="userSpaceOnUse">
<stop stop-color="#FFE100"/>
<stop offset="1" stop-color="#F98900"/>
</linearGradient>
<linearGradient id="paint1_linear_0_203" x1="55.0059" y1="92.0839" x2="55.0059" y2="64.742" gradientUnits="userSpaceOnUse">
<stop stop-color="#911625"/>
<stop offset="0.21" stop-color="#851422"/>
<stop offset="0.59" stop-color="#670F1A"/>
<stop offset="1" stop-color="#400A10"/>
</linearGradient>
</defs>
</svg>
