<svg xmlns="http://www.w3.org/2000/svg" width="231" height="96" viewBox="0 0 231 96">
    <g fill="none" fill-rule="evenodd">
        <g fill="#fff">
            <path d="M125.33 59.46c5.994 9.114 8.586 23.498-12.763 32.048-16.913 6.773-25.312 11.57-26.4 21.935C70.233 78.85 136.769 82.29 125.33 59.46zm88.69-8.816c6.432 0 10.236 4.142 10.236 10.972v18.642h-.026v3.437h.014c-.002.047-.014.09-.014.138 0 1.642 1.33 2.972 2.97 2.972 1.64 0 2.97-1.33 2.97-2.972 0-.047-.013-.09-.015-.138h.014V51.147h3.692v32.778c-.055 3.64-3.013 6.575-6.661 6.575-3.648 0-6.607-2.936-6.658-6.575h-.003V71.819h.025V62.23c0-5.402-2.685-8.285-7.635-8.285-5.063 0-8.446 3.639-8.446 9.07v17.242h-3.692v-29.11h3.692V56.1h.111c1.455-3.135 4.727-5.457 9.426-5.457zM65.933 34.754c10.521-20.532 35.065-10.492 29.73 12.597-2.71-17.708-34.398-3.573-15.907 43.132C62.052 71.67 57.88 50.469 65.933 34.753zm214.73 45.004l7.461 7.467c.65.649.65 1.702 0 2.351-.498.499-1.305.499-1.803 0l-5.655-5.659-5.676 5.68c-.498.499-1.305.499-1.804 0-.648-.649-.648-1.702 0-2.351l7.478-7.488zm-96.33-29.143c6.656 0 10.823 3.751 10.823 9.713v19.93h-3.692v-5.32h-.11c-1.596 3.472-5.427 5.852-9.734 5.852-5.734 0-9.65-3.443-9.65-8.594v-.056c0-4.955 3.748-7.95 10.433-8.398l9.061-.559v-2.519c0-4.199-2.657-6.746-7.187-6.746-4.223 0-6.992 2.043-7.607 5.346l-.056.28h-3.58l.028-.336c.56-5.01 4.698-8.593 11.271-8.593zm67.106 0c7.774 0 12.67 5.822 12.67 14.528v1.455h-21.843c.11 6.942 3.83 10.888 9.565 10.888 4.278 0 7.243-2.155 8.194-5.318l.056-.252h3.663l-.056.28c-1.006 4.982-5.648 8.594-11.942 8.594-8.166 0-13.228-5.795-13.228-15.004v-.028c0-9.125 5.146-15.143 12.92-15.143zM146.34 39.866v17.355h.085c1.649-4.03 5.397-6.606 9.956-6.606 7.271 0 12.277 5.962 12.277 15.059v.029c0 9.096-4.979 15.087-12.306 15.087-4.586 0-8.25-2.576-9.927-6.69h-.085v6.157h-3.72v-40.39h3.72zM96.388 63.7c7.564-10.486 22.833-13.571 27.334-5.523 5.039 10.057-5.685 15.406-17.621 20.77l-.789.354-1.584.71-1.19.533c11.73-9.706 8.155-24.8-6.15-16.844zm95.076 2.395l-8.613.588c-4.56.28-7.104 2.267-7.104 5.458v.056c0 3.19 2.685 5.346 6.628 5.346 5.09 0 9.09-3.582 9.09-8.229v-3.22zm-35.81-12.176c-5.426 0-9.341 4.758-9.341 11.756v.029c0 7.025 3.858 11.783 9.34 11.783 5.594 0 9.202-4.59 9.202-11.783v-.029c0-7.137-3.608-11.756-9.202-11.756zm124.296-8.63c7.775 0 12.67 5.822 12.67 14.528v1.456h-21.843c.112 6.94 3.83 10.887 9.565 10.887 4.279 0 7.244-2.155 8.195-5.317l.056-.253h3.663l-.057.28c-1.005 4.982-5.648 8.594-11.94 8.594-8.168 0-13.23-5.794-13.23-15.004v-.027c0-9.125 5.147-15.144 12.921-15.144zM75.288 23.262c13.149-10.582 30.438-3.47 33.866 6.1 5.049 14.088-2.245 24.67-23.05 37.349 9.2-9.799 12.34-19.001 11.895-26.475-.146-4.614-1.542-8.744-4.125-12.024-3.062-3.89-7.55-6.142-12.312-6.183-1.104-.01-2.19.096-3.252.31-.736.137-1.464.337-2.18.601-.283.1-.564.206-.842.322zM251.41 53.918c-4.95 0-8.641 3.555-9.089 9.741h18.067c-.42-6.354-4-9.74-8.978-9.74zm28.512-5.326c-4.95 0-8.641 3.554-9.089 9.74H288.9c-.42-6.354-4-9.74-8.978-9.74zm-47.907-14.519c3.723 0 6.685 2.889 6.685 6.614s-2.962 6.691-6.685 6.691c-3.646 0-6.685-2.966-6.685-6.69 0-3.726 3.039-6.615 6.685-6.615z" transform="translate(-62 -18)"/>
        </g>
    </g>
</svg>
